<?xml version="1.0" encoding="UTF-8" standalone="no"?>
<!-- Created with Inkscape (http://www.inkscape.org/) -->

<svg
   xmlns:dc="http://purl.org/dc/elements/1.1/"
   xmlns:cc="http://creativecommons.org/ns#"
   xmlns:rdf="http://www.w3.org/1999/02/22-rdf-syntax-ns#"
   xmlns:svg="http://www.w3.org/2000/svg"
   xmlns="http://www.w3.org/2000/svg"
   xmlns:sodipodi="http://sodipodi.sourceforge.net/DTD/sodipodi-0.dtd"
   xmlns:inkscape="http://www.inkscape.org/namespaces/inkscape"
   width="744.09448819"
   height="1052.3622047"
   id="svg2"
   version="1.1"
   inkscape:version="0.48.4 r9939"
   sodipodi:docname="New document 1">
  <defs
     id="defs4" />
  <sodipodi:namedview
     id="base"
     pagecolor="#ffffff"
     bordercolor="#666666"
     borderopacity="1.0"
     inkscape:pageopacity="0.0"
     inkscape:pageshadow="2"
     inkscape:zoom="2.8"
     inkscape:cx="275.4147"
     inkscape:cy="701.33765"
     inkscape:document-units="px"
     inkscape:current-layer="layer1"
     showgrid="false"
     inkscape:window-width="1600"
     inkscape:window-height="852"
     inkscape:window-x="0"
     inkscape:window-y="0"
     inkscape:window-maximized="1" />
  <metadata
     id="metadata7">
    <rdf:RDF>
      <cc:Work
         rdf:about="">
        <dc:format>image/svg+xml</dc:format>
        <dc:type
           rdf:resource="http://purl.org/dc/dcmitype/StillImage" />
        <dc:title></dc:title>
      </cc:Work>
    </rdf:RDF>
  </metadata>
  <g
     inkscape:label="Layer 1"
     inkscape:groupmode="layer"
     id="layer1">
    <path
       inkscape:export-filename="/home/nikka/Desktop/nick11roberts.github.io/images/leftSideNav.png"
       inkscape:export-xdpi="422.16"
       inkscape:export-ydpi="422.16"
       style="fill:#a7a29e;fill-opacity:1;stroke:none"
       d="M 148.5625 309.75 C 119.12726 309.75 95.25 333.62726 95.25 363.0625 C 95.25 392.49774 119.12726 416.34375 148.5625 416.34375 C 177.99774 416.34375 201.84375 392.49774 201.84375 363.0625 L 201.84375 362.96875 C 201.78903 333.5723 177.959 309.75 148.5625 309.75 z M 143 327.5 C 145.07028 327.50003 146.90361 327.75003 148.53125 328.21875 C 150.17184 328.68753 151.526 329.36461 152.59375 330.25 C 153.66142 331.13544 154.41402 332.22398 154.84375 333.5 C 155.28642 334.76304 155.35673 336.19794 155.03125 337.8125 C 154.71871 339.38804 154.12756 340.78127 153.28125 342.03125 C 152.43486 343.26824 151.36975 344.34637 150.09375 345.21875 C 148.83069 346.07814 147.3958 346.71876 145.78125 347.1875 C 144.16664 347.64324 142.42966 347.87501 140.59375 347.875 C 140.37237 347.87501 140.2057 347.83595 140.0625 347.71875 C 139.93227 347.58855 139.88539 347.37241 139.9375 347.125 C 139.97654 346.9297 140.0807 346.76824 140.25 346.625 C 140.41924 346.48178 140.60414 346.40626 140.8125 346.40625 C 142.4531 346.40626 144.00518 346.22137 145.4375 345.84375 C 146.86976 345.46616 148.1432 344.91668 149.25 344.1875 C 150.35673 343.44533 151.25778 342.53647 152 341.46875 C 152.75517 340.40106 153.28902 339.19273 153.5625 337.8125 C 153.84892 336.40627 153.77861 335.15627 153.375 334.0625 C 152.98434 332.96877 152.30725 332.03648 151.34375 331.28125 C 150.38017 330.52607 149.15882 329.95315 147.6875 329.5625 C 146.22913 329.1719 144.56768 328.96878 142.71875 328.96875 C 140.97393 328.96878 139.25518 329.11982 137.5625 329.40625 C 135.86977 329.69274 134.25519 330.10419 132.71875 330.625 C 131.18227 331.14586 129.76561 331.77086 128.4375 332.5 C 127.12238 333.22919 125.95311 334.03388 124.9375 334.90625 C 123.92187 335.77867 123.08332 336.71617 122.40625 337.71875 C 121.74218 338.70835 121.30208 339.71356 121.09375 340.78125 C 120.89843 341.71877 120.8802 342.54689 121.0625 343.25 C 121.25781 343.95314 121.58853 344.54949 122.03125 345.03125 C 122.47395 345.50001 123.0052 345.85939 123.65625 346.09375 C 124.3203 346.32814 125.04426 346.43751 125.8125 346.4375 C 126.72395 346.43751 127.5703 346.35157 128.3125 346.15625 C 129.06769 345.96095 129.68488 345.73439 130.21875 345.5 C 130.75259 345.26564 131.16925 345.03907 131.46875 344.84375 C 131.76821 344.63543 131.96092 344.52605 132 344.5 C 132.16925 344.35678 132.33592 344.28126 132.53125 344.28125 C 132.72654 344.28126 132.88279 344.37501 133 344.53125 C 133.11717 344.67449 133.16404 344.83595 133.125 345.03125 C 133.08592 345.25262 132.96352 345.4323 132.78125 345.5625 C 132.75519 345.58855 132.58332 345.72137 132.21875 345.96875 C 131.86717 346.21616 131.35675 346.48178 130.71875 346.78125 C 130.08071 347.06772 129.3229 347.32813 128.4375 347.5625 C 127.56509 347.79688 126.59895 347.90626 125.53125 347.90625 C 124.55468 347.90626 123.64582 347.76303 122.8125 347.4375 C 121.99218 347.11199 121.29687 346.64324 120.75 346.03125 C 120.20312 345.40626 119.8151 344.65366 119.59375 343.78125 C 119.37239 342.89585 119.37239 341.88804 119.59375 340.78125 C 119.82812 339.57033 120.33333 338.40106 121.0625 337.28125 C 121.79166 336.14846 122.68749 335.10158 123.78125 334.125 C 124.88801 333.13544 126.14322 332.24482 127.5625 331.4375 C 128.99478 330.61721 130.56509 329.91669 132.21875 329.34375 C 133.87238 328.75784 135.58331 328.31253 137.40625 328 C 139.22914 327.67451 141.11195 327.50003 143 327.5 z M 144.34375 333.15625 C 144.53903 333.15627 144.69528 333.23179 144.8125 333.375 C 144.94268 333.50523 144.98955 333.68492 144.9375 333.90625 C 144.91143 334.03648 144.84112 334.14586 144.75 334.25 C 144.65882 334.35419 144.55466 334.44013 144.4375 334.53125 C 143.59112 335.10419 142.88539 335.74221 142.3125 336.40625 C 141.75258 337.07033 141.29685 337.76304 140.90625 338.53125 C 140.52862 339.28648 140.21612 340.10939 139.96875 340.96875 C 139.73435 341.82814 139.50779 342.71876 139.3125 343.65625 L 138.8125 346.125 C 138.48696 347.73959 138.04164 349.26042 137.46875 350.71875 C 136.89581 352.16407 136.16144 353.4375 135.25 354.53125 C 134.35154 355.625 133.27602 356.48698 132 357.125 C 130.72394 357.77604 129.20051 358.125 127.46875 358.125 C 126.68749 358.125 125.93488 358.00781 125.21875 357.8125 C 124.51561 357.63021 123.8802 357.38281 123.28125 357.03125 C 122.6953 356.66667 122.17447 356.20833 121.71875 355.6875 C 121.26301 355.16667 120.89843 354.58854 120.625 353.9375 C 120.61197 353.88542 120.60676 353.81511 120.59375 353.75 C 120.58072 353.67188 120.58072 353.59636 120.59375 353.53125 C 120.63281 353.34896 120.73697 353.20573 120.90625 353.0625 C 121.07551 352.90625 121.24739 352.8125 121.46875 352.8125 C 121.59895 352.8125 121.72135 352.85938 121.8125 352.9375 C 121.90364 353.00261 121.99739 353.08334 122.0625 353.1875 C 122.66145 354.34636 123.40624 355.22656 124.34375 355.8125 C 125.28124 356.38542 126.44009 356.65625 127.78125 356.65625 C 129.31769 356.65625 130.60675 356.40365 131.6875 355.84375 C 132.78123 355.27084 133.69529 354.47657 134.4375 353.5 C 135.19269 352.51042 135.8255 351.37761 136.28125 350.0625 C 136.74998 348.7474 137.10675 347.32813 137.40625 345.84375 L 137.90625 343.375 C 138.08852 342.50262 138.30206 341.61199 138.5625 340.6875 C 138.82289 339.75002 139.2005 338.82293 139.65625 337.9375 C 140.12497 337.03908 140.69789 336.20054 141.375 335.40625 C 142.06508 334.59898 142.90883 333.89325 143.9375 333.28125 C 143.98955 333.25523 144.04685 333.21357 144.125 333.1875 C 144.21612 333.16148 144.29164 333.15627 144.34375 333.15625 z M 154.75 344.5 C 155.04947 344.50001 155.29427 344.62241 155.4375 344.84375 C 155.58072 345.06512 155.64843 345.33074 155.6875 345.65625 C 155.72656 345.96876 155.74479 346.3047 155.71875 346.65625 C 155.6927 347.00782 155.64583 347.30209 155.59375 347.5625 L 156.28125 347.5625 C 156.5026 347.54949 156.71093 347.56251 156.90625 347.5625 C 157.64843 347.56251 158.17447 347.70574 158.5 348.03125 C 158.82551 348.35678 158.90624 348.88282 158.75 349.625 C 158.69791 349.92449 158.60416 350.23699 158.5 350.5625 C 158.39583 350.88803 158.28645 351.24219 158.15625 351.59375 C 158.03906 351.9323 157.94791 352.25521 157.84375 352.59375 C 157.73958 352.9323 157.6276 353.26823 157.5625 353.59375 C 157.45833 354.0625 157.46614 354.46875 157.53125 354.78125 C 157.60937 355.08073 157.71874 355.31771 157.875 355.5 C 158.03124 355.68229 158.19791 355.79688 158.40625 355.875 C 158.61458 355.94011 158.8177 356 159 356 C 159.55989 356 160.12759 355.80208 160.6875 355.4375 C 161.26041 355.07292 161.79166 354.63281 162.3125 354.125 C 162.83332 353.60417 163.33853 353.07292 163.78125 352.5 C 164.23697 351.92709 164.60676 351.42969 164.90625 351 C 164.94452 350.9508 164.98609 350.91502 165.03125 350.875 C 165.10892 350.66805 165.18631 350.44439 165.28125 350.25 C 165.55468 349.69011 165.89062 349.22917 166.28125 348.8125 C 166.67187 348.39584 167.09375 348.04688 167.5625 347.8125 C 168.03124 347.57813 168.52343 347.46876 169.03125 347.46875 C 169.33072 347.46876 169.63281 347.52605 169.90625 347.65625 C 170.17968 347.77345 170.41145 347.95313 170.59375 348.1875 C 170.78905 348.40886 170.92187 348.67449 171 349 C 171.07812 349.32553 171.05989 349.70834 170.96875 350.125 C 170.86458 350.65886 170.67968 351.15626 170.40625 351.625 C 170.13281 352.09375 169.80989 352.53386 169.40625 352.9375 C 169.0026 353.34115 168.53906 353.72396 168.03125 354.0625 C 167.52343 354.40104 166.99739 354.69011 166.4375 354.9375 C 166.63281 355.31511 166.90364 355.60938 167.28125 355.84375 C 167.67187 356.06511 168.18749 356.1875 168.8125 356.1875 C 169.45051 356.1875 170.07031 356.01823 170.65625 355.71875 C 171.24218 355.40625 171.79166 355.02604 172.3125 354.53125 C 172.84634 354.03646 173.32551 353.48698 173.78125 352.875 C 174.24999 352.26303 174.67186 351.64323 175.0625 351.03125 C 175.08715 350.99251 175.12874 350.97053 175.15625 350.9375 C 175.17139 350.85222 175.17022 350.7739 175.1875 350.6875 C 175.35677 349.82813 175.54687 349.16147 175.78125 348.71875 C 176.01562 348.27605 176.16666 348.03386 176.21875 347.96875 C 176.30989 347.85157 176.41406 347.75261 176.53125 347.6875 C 176.66145 347.62241 176.79427 347.59376 176.9375 347.59375 C 177.15885 347.59376 177.30208 347.65626 177.40625 347.8125 C 177.51041 347.95574 177.57031 348.13022 177.53125 348.3125 C 177.5052 348.44272 177.45312 348.56511 177.375 348.65625 C 177.36197 348.6823 177.26302 348.83074 177.09375 349.15625 C 176.92448 349.48178 176.7552 349.97397 176.625 350.625 C 176.46875 351.39323 176.41146 352.09896 176.4375 352.75 C 176.46354 353.40105 176.55729 353.96875 176.6875 354.4375 C 176.8177 354.90625 176.97395 355.28906 177.15625 355.5625 C 177.35156 355.82292 177.53125 355.9375 177.6875 355.9375 C 177.79166 355.9375 177.95312 355.85156 178.1875 355.65625 C 178.43489 355.46094 178.68229 355.18229 178.96875 354.84375 C 179.26822 354.50521 179.58072 354.125 179.90625 353.65625 C 180.24478 353.1875 180.59374 352.67188 180.90625 352.125 C 181.21874 351.56511 181.5026 350.98699 181.75 350.375 C 181.99739 349.75001 182.18228 349.10678 182.3125 348.46875 C 182.33853 348.33855 182.36197 348.21095 182.375 348.09375 L 182.4375 347.71875 C 182.47655 347.49741 182.58072 347.29949 182.75 347.15625 C 182.91926 347.00001 183.12239 346.93751 183.34375 346.9375 C 183.51301 346.93751 183.66405 346.98959 183.78125 347.09375 C 183.89843 347.19793 183.93749 347.31772 183.9375 347.5 C 183.93749 347.48699 183.93749 347.59116 183.9375 347.8125 C 183.95051 348.03386 183.97916 348.33595 184.03125 348.6875 C 184.09634 349.02605 184.17707 349.37761 184.28125 349.78125 C 184.38541 350.1849 184.55468 350.58594 184.75 350.9375 C 184.95832 351.27605 185.20051 351.54688 185.5 351.78125 C 185.81249 352.01563 186.20051 352.125 186.65625 352.125 C 186.90363 352.125 187.11717 352.07292 187.3125 351.96875 C 187.52082 351.86459 187.70051 351.75521 187.84375 351.625 C 187.98696 351.4948 188.10936 351.36719 188.1875 351.25 C 188.26561 351.13282 188.29946 351.07553 188.3125 351.0625 C 188.39061 350.91928 188.49478 350.79688 188.625 350.71875 C 188.76821 350.62761 188.93748 350.59376 189.09375 350.59375 C 189.30207 350.59376 189.4453 350.68751 189.5625 350.84375 C 189.67967 350.98699 189.72655 351.14844 189.6875 351.34375 C 189.66144 351.4349 189.61457 351.53386 189.5625 351.625 C 189.4453 351.8073 189.28905 352.01563 189.09375 352.25 C 188.89842 352.48438 188.67967 352.69792 188.40625 352.90625 C 188.1328 353.11459 187.8203 353.29427 187.46875 353.4375 C 187.11717 353.56771 186.73436 353.625 186.34375 353.625 C 185.88801 353.625 185.48957 353.53125 185.125 353.375 C 184.77343 353.20573 184.46093 352.9974 184.1875 352.75 C 183.92707 352.48959 183.6953 352.21875 183.5 351.90625 C 183.30468 351.58073 183.14843 351.26303 183.03125 350.9375 C 182.65364 351.84896 182.20832 352.70573 181.6875 353.5 C 181.16666 354.28125 180.6276 354.94531 180.09375 355.53125 C 179.57291 356.11719 179.05729 356.59896 178.5625 356.9375 C 178.08072 357.27604 177.70572 357.44271 177.40625 357.46875 C 177.0677 357.46875 176.72656 357.30729 176.375 356.96875 C 176.03646 356.63021 175.74739 356.16146 175.5 355.5625 C 175.25578 354.95838 175.07927 354.22608 175 353.40625 C 174.13409 354.52016 173.28578 355.45162 172.4375 356.125 C 171.17447 357.1276 169.87239 357.63021 168.53125 357.65625 C 167.67187 357.65625 166.96614 357.49479 166.40625 357.15625 C 165.84635 356.83073 165.42448 356.39583 165.125 355.875 C 164.82552 355.34115 164.6276 354.75781 164.5625 354.09375 C 164.55029 353.93811 164.56469 353.78064 164.5625 353.625 C 164.0563 354.24357 163.52393 354.82522 162.9375 355.375 C 162.31249 355.96094 161.62239 356.47135 160.90625 356.875 C 160.20312 357.27865 159.47395 357.46875 158.71875 357.46875 C 158.24999 357.46875 157.82812 357.36979 157.4375 357.1875 C 157.05989 357.01823 156.76562 356.79427 156.53125 356.46875 C 156.29687 356.13021 156.12239 355.70052 156.03125 355.21875 C 155.95312 354.72396 155.97656 354.17448 156.09375 353.5625 C 156.22395 352.91146 156.42708 352.26303 156.6875 351.625 C 156.94791 350.97396 157.13281 350.36719 157.25 349.78125 C 157.30208 349.53386 157.27864 349.33595 157.1875 349.21875 C 157.09635 349.08855 156.84635 349.03126 156.46875 349.03125 L 155.875 349.03125 C 155.66666 349.03126 155.43489 349.04949 155.1875 349.0625 C 155.07031 349.41407 154.95573 349.75001 154.8125 350.0625 C 154.66927 350.36199 154.52343 350.60938 154.40625 350.84375 C 154.28906 351.06511 154.20312 351.26303 154.125 351.40625 C 154.04687 351.54948 153.98177 351.61198 153.96875 351.625 C 153.77343 351.92448 153.51302 352.09375 153.1875 352.09375 C 153.00521 352.09375 152.84896 352.00521 152.71875 351.875 C 152.58854 351.73178 152.57291 351.55209 152.625 351.34375 C 152.63802 351.26563 152.66146 351.22657 152.6875 351.1875 C 152.72656 351.14844 152.76562 351.05469 152.84375 350.9375 C 152.92187 350.82032 153.02604 350.64844 153.15625 350.375 C 153.28646 350.10157 153.48437 349.66667 153.71875 349.09375 C 153.49739 349.09376 153.26562 349.07553 153.03125 349.0625 C 152.79687 349.04949 152.58854 349.01563 152.40625 348.9375 C 152.22396 348.85938 152.07292 348.73178 151.96875 348.5625 C 151.8776 348.39324 151.85417 348.17449 151.90625 347.875 C 151.95833 347.65366 152.08594 347.34636 152.28125 346.96875 C 152.47656 346.59116 152.71354 346.20834 153 345.84375 C 153.28646 345.47918 153.59375 345.16668 153.90625 344.90625 C 154.21875 344.63282 154.48958 344.50001 154.75 344.5 z M 154.21875 346.28125 C 154.17968 346.28126 154.10937 346.33334 154.03125 346.4375 C 153.95312 346.52866 153.88541 346.63803 153.78125 346.78125 C 153.6901 346.91147 153.57812 347.06251 153.5 347.21875 L 153.3125 347.59375 L 154.1875 347.59375 C 154.20052 347.50261 154.22395 347.39324 154.25 347.25 C 154.27604 347.09376 154.28125 346.95574 154.28125 346.8125 C 154.29427 346.66928 154.29427 346.54168 154.28125 346.4375 C 154.28125 346.33334 154.25781 346.28126 154.21875 346.28125 z M 168.75 348.9375 C 168.39843 348.93751 168.0677 349.02345 167.78125 349.21875 C 167.49479 349.41407 167.2526 349.68751 167.03125 350 C 166.82291 350.31251 166.625 350.64063 166.46875 351.03125 C 166.32552 351.40886 166.23437 351.8099 166.15625 352.1875 C 166.11718 352.42188 166.07552 352.64584 166.0625 352.90625 C 166.0625 353.16667 166.08073 353.42188 166.09375 353.65625 C 166.53645 353.48698 166.93489 353.29167 167.3125 353.03125 C 167.70312 352.77084 168.05729 352.46875 168.34375 352.15625 C 168.64322 351.84376 168.89843 351.52605 169.09375 351.1875 C 169.30208 350.83594 169.43489 350.47657 169.5 350.125 C 169.57812 349.73438 169.53124 349.44532 169.375 349.25 C 169.21874 349.04167 169.01041 348.93751 168.75 348.9375 z M 173.03125 387.03125 C 173.23957 387.03127 173.3828 387.09377 173.5 387.25 C 173.61717 387.39325 173.66405 387.55471 173.625 387.75 C 173.58592 387.93231 173.52342 388.08335 173.40625 388.1875 C 173.34113 388.26564 173.04425 388.52606 172.5625 388.96875 C 172.08071 389.41148 171.42186 389.96095 170.5625 390.625 C 169.71613 391.28908 168.71613 392.0547 167.53125 392.875 C 166.35937 393.68231 165.03905 394.45574 163.59375 395.25 C 164.1276 395.61459 164.59635 395.96355 165 396.25 C 165.41666 396.53647 165.78645 396.80209 166.125 397.0625 C 166.47655 397.30991 166.79426 397.56511 167.09375 397.8125 C 167.40624 398.0599 167.74218 398.3073 168.09375 398.59375 C 168.4453 398.8672 168.84634 399.19272 169.25 399.53125 C 169.66665 399.8698 170.12759 400.25782 170.6875 400.6875 C 170.85676 400.83074 170.92707 401.02084 170.875 401.28125 C 170.84894 401.42448 170.77342 401.5573 170.65625 401.6875 C 170.57811 401.79167 170.48697 401.89063 170.34375 401.96875 C 170.20051 402.03386 170.05467 402.06251 169.9375 402.0625 C 169.79426 402.06251 169.66665 402.02865 169.5625 401.9375 C 168.96353 401.46876 168.45572 401.05209 168 400.6875 C 167.54426 400.3099 167.09114 399.93751 166.6875 399.625 C 166.29687 399.29949 165.92707 399.02345 165.5625 398.75 C 165.21093 398.46355 164.82812 398.16147 164.4375 397.875 C 164.04687 397.57553 163.62499 397.28126 163.15625 396.96875 C 162.68749 396.65626 162.16145 396.31511 161.5625 395.9375 C 161.34114 395.79428 161.24739 395.54949 161.3125 395.25 C 161.36458 394.96355 161.5625 394.76824 161.875 394.625 C 162.85156 394.14324 163.77083 393.62762 164.65625 393.09375 C 165.55468 392.54689 166.38801 392.00262 167.15625 391.46875 C 167.93749 390.92189 168.65624 390.40106 169.28125 389.90625 C 169.91926 389.41148 170.45051 388.97137 170.90625 388.59375 C 171.36196 388.21616 171.72134 387.92189 171.96875 387.6875 C 172.22915 387.45314 172.36196 387.32554 172.375 387.3125 C 172.5703 387.11721 172.79686 387.03127 173.03125 387.03125 z M 185.34375 399.5625 C 185.55207 399.54949 185.72655 399.6198 185.84375 399.75 C 185.97394 399.88022 186.02603 400.04167 186 400.25 C 185.96092 400.45834 185.84374 400.62501 185.6875 400.78125 C 185.53124 400.92449 185.34634 401.01824 185.125 401.03125 L 178.34375 401.375 C 178.14843 401.38803 177.98697 401.33594 177.84375 401.21875 C 177.71354 401.08855 177.64843 400.90886 177.6875 400.6875 C 177.73958 400.47917 177.85676 400.29949 178 400.15625 C 178.15624 400.00001 178.34114 399.91928 178.5625 399.90625 L 185.34375 399.5625 z "
       id="path3781" />
    <path
       inkscape:export-filename="/home/nikka/Desktop/nick11roberts.github.io/images/rightSideNav.png"
       inkscape:export-xdpi="422.16"
       inkscape:export-ydpi="422.16"
       style="fill:#a7a29e;fill-opacity:1;stroke:none"
       d="m 262.15146,311.4142 c -29.43524,0 -53.28125,23.87726 -53.28125,53.3125 0,29.43524 23.84601,53.28125 53.28125,53.28125 29.43525,0 53.3125,-23.84601 53.3125,-53.28125 l 0,-0.0937 c -0.0547,-29.39645 -23.91599,-53.21875 -53.3125,-53.21875 z m 11.25,18.78125 c 0.45568,3e-5 0.77339,0.0521 0.96875,0.15625 0.20829,0.1042 0.31245,0.2943 0.3125,0.59375 l 0,0.0937 c -0.0261,0.19534 -0.10682,0.35159 -0.25,0.46875 -0.14328,0.11722 -0.31776,0.18753 -0.5,0.1875 -0.0261,3e-5 -0.0599,3e-5 -0.125,0 -0.0652,-0.013 -0.20317,-0.0312 -0.4375,-0.0312 -0.24744,3e-5 -0.57817,0.0417 -0.96875,0.0937 -0.37765,0.0521 -0.81254,0.17451 -1.28125,0.34375 -0.45577,0.15628 -0.92973,0.37503 -1.4375,0.6875 -0.49483,0.31253 -0.98702,0.74742 -1.46875,1.28125 -0.48181,0.52086 -0.94535,1.15628 -1.375,1.9375 -0.42973,0.76825 -0.79431,1.71877 -1.09375,2.8125 -0.15629,0.5469 -0.32295,1.31512 -0.53125,2.34375 -0.19535,1.01564 -0.42191,2.16148 -0.65625,3.4375 -0.22139,1.27606 -0.45316,2.64845 -0.6875,4.09375 -0.22139,1.44532 -0.4167,2.85678 -0.625,4.25 -0.19535,1.39324 -0.39326,2.73698 -0.5625,4 -0.16931,1.25 -0.28389,2.32031 -0.375,3.21875 -0.0261,0.16927 -0.11983,0.30729 -0.25,0.4375 -0.11722,0.14323 -0.25524,0.21875 -0.4375,0.21875 -0.18233,0 -0.3568,-0.0338 -0.5,-0.125 -0.13024,-0.0911 -0.19795,-0.25521 -0.25,-0.4375 -0.1693,-0.625 -0.44795,-1.48698 -0.8125,-2.59375 -0.36462,-1.10677 -0.79951,-2.33854 -1.28125,-3.71875 -0.46878,-1.39322 -0.97138,-2.87499 -1.53125,-4.4375 -0.55993,-1.56249 -1.12763,-3.10155 -1.6875,-4.625 -0.5469,-1.53644 -1.07294,-3.013 -1.59375,-4.40625 -0.50784,-1.40623 -0.95315,-2.61977 -1.34375,-3.6875 -0.0651,0.72919 -0.1693,1.53908 -0.3125,2.4375 -0.13023,0.88544 -0.32815,1.84637 -0.5625,2.875 -0.22138,1.01564 -0.50523,2.07293 -0.84375,3.21875 -0.33857,1.13283 -0.71877,2.3073 -1.1875,3.53125 -0.72919,1.87501 -1.60419,3.48438 -2.59375,4.8125 -0.97658,1.32813 -2.01304,2.42709 -3.09375,3.3125 -1.08074,0.88542 -2.16148,1.60417 -3.28125,2.125 -1.10679,0.50781 -2.14845,0.89583 -3.125,1.15625 -0.97658,0.26042 -1.87501,0.40365 -2.65625,0.46875 -0.78126,0.0781 -1.36459,0.125 -1.78125,0.125 -1.4323,0 -2.75782,-0.1849 -3.96875,-0.5625 -1.19792,-0.3776 -2.23959,-0.90364 -3.125,-1.59375 -0.8724,-0.70312 -1.56771,-1.53646 -2.0625,-2.5 -0.48177,-0.97656 -0.71875,-2.04687 -0.71875,-3.21875 0,-1.05468 0.25,-2.05728 0.71875,-2.96875 0.48177,-0.92447 1.11198,-1.72915 1.90625,-2.40625 0.80729,-0.67707 1.72135,-1.20311 2.75,-1.59375 1.04166,-0.39061 2.1302,-0.59374 3.25,-0.59375 0.92447,10e-6 1.73957,0.099 2.46875,0.28125 0.74218,0.18231 1.40884,0.43231 1.96875,0.71875 0.5729,0.27345 1.06509,0.54949 1.46875,0.875 0.41665,0.32553 0.73957,0.63803 1,0.9375 0.27342,0.28647 0.49478,0.54168 0.625,0.75 0.14321,0.20834 0.22394,0.33595 0.25,0.375 0.0521,0.10418 0.0625,0.21355 0.0625,0.34375 -2e-5,0.1823 -0.0755,0.37501 -0.21875,0.53125 -0.13023,0.15626 -0.30991,0.21876 -0.53125,0.21875 -0.28647,10e-6 -0.48179,-0.11457 -0.625,-0.375 -0.013,-0.039 -0.15887,-0.23697 -0.40625,-0.5625 -0.23439,-0.33853 -0.58595,-0.70311 -1.09375,-1.09375 -0.49481,-0.39061 -1.14324,-0.74999 -1.9375,-1.0625 -0.79428,-0.32551 -1.77345,-0.46874 -2.90625,-0.46875 -0.92449,10e-6 -1.83334,0.15626 -2.71875,0.46875 -0.8724,0.31251 -1.63542,0.73439 -2.3125,1.28125 -0.67709,0.54689 -1.20834,1.1823 -1.625,1.9375 -0.40365,0.7422 -0.625,1.56511 -0.625,2.4375 0,0.95053 0.21354,1.83073 0.65625,2.625 0.44271,0.78125 1.05729,1.44011 1.8125,2 0.76822,0.5599 1.65364,1 2.65625,1.3125 1.01562,0.29948 2.10416,0.4375 3.25,0.4375 0.4427,0 1.02082,-0.0286 1.75,-0.0937 0.72915,-0.0651 1.53905,-0.20312 2.4375,-0.4375 0.91144,-0.23437 1.87238,-0.59375 2.875,-1.0625 1.00259,-0.48177 1.99217,-1.11718 2.96875,-1.9375 0.97655,-0.82031 1.89582,-1.86979 2.78125,-3.09375 0.89842,-1.22395 1.6979,-2.6927 2.375,-4.4375 0.7031,-1.79686 1.23435,-3.5104 1.625,-5.125 0.40362,-1.62759 0.71091,-3.0729 0.90625,-4.375 0.19529,-1.30206 0.30466,-2.43227 0.34375,-3.34375 0.0521,-0.92445 0.0937,-1.5781 0.0937,-1.96875 l 0,-0.375 c -2e-5,-0.20831 0.0573,-0.38799 0.1875,-0.53125 0.1432,-0.15622 0.34112,-0.24997 0.5625,-0.25 0.3255,3e-5 0.55727,0.17451 0.6875,0.5 0.039,0.0912 0.13018,0.38544 0.3125,0.90625 0.19529,0.52086 0.45049,1.19794 0.75,2.03125 0.31247,0.82034 0.67185,1.79429 1.0625,2.875 0.40362,1.08075 0.80726,2.21356 1.25,3.4375 0.44268,1.21095 0.90622,2.47918 1.375,3.78125 0.46872,1.3021 0.93226,2.58074 1.375,3.84375 0.4557,1.26303 0.87757,2.48438 1.28125,3.65625 0.40361,1.17188 0.7682,2.22396 1.09375,3.1875 0.1432,-1.04166 0.29944,-2.12239 0.46875,-3.28125 0.16924,-1.17187 0.34892,-2.34634 0.53125,-3.53125 0.19528,-1.1979 0.38017,-2.3854 0.5625,-3.53125 0.19528,-1.14582 0.38017,-2.21613 0.5625,-3.21875 0.19528,-1.00259 0.37496,-1.89321 0.53125,-2.6875 0.15621,-0.79425 0.30725,-1.45571 0.4375,-1.9375 0.28642,-1.14581 0.68486,-2.19789 1.21875,-3.1875 0.53382,-1.00258 1.18225,-1.88279 1.9375,-2.625 0.76819,-0.74216 1.6484,-1.30205 2.625,-1.71875 0.98954,-0.42966 2.08329,-0.65622 3.28125,-0.65625 z m 23.15625,6.78125 c 0.32552,2e-5 0.60938,0.0808 0.84375,0.25 0.2474,0.15627 0.45573,0.36981 0.625,0.65625 0.16927,0.28648 0.28385,0.64065 0.375,1.03125 0.10417,0.39065 0.19792,0.81252 0.25,1.28125 l 9.96875,0 c 0.20832,2e-5 0.38801,0.0573 0.53125,0.1875 0.14322,0.11721 0.21874,0.29169 0.21875,0.5 -10e-6,0.20835 -0.0755,0.36981 -0.21875,0.5 -0.14324,0.11721 -0.32293,0.18752 -0.53125,0.1875 l -9.90625,0 0,0.21875 c 0,0.79429 -0.0391,1.63283 -0.15625,2.53125 -0.11719,0.89845 -0.29167,1.78908 -0.5,2.6875 -0.19531,0.88543 -0.42708,1.74741 -0.6875,2.59375 -0.2474,0.84636 -0.50781,1.62761 -0.78125,2.34375 -0.26042,0.71615 -0.52083,1.34115 -0.78125,1.875 -0.26041,0.52084 -0.47916,0.92709 -0.6875,1.1875 0.16927,0.59896 0.35938,1.13542 0.59375,1.65625 0.23438,0.50782 0.49479,0.98438 0.78125,1.375 0.29948,0.37761 0.63021,0.65365 0.96875,0.875 0.33854,0.22136 0.70312,0.34375 1.09375,0.34375 0.45573,0 0.90104,-0.18489 1.34375,-0.5625 0.45573,-0.39062 0.87239,-0.85416 1.25,-1.375 0.39062,-0.53385 0.71354,-1.05989 1,-1.59375 0.29947,-0.54687 0.52604,-0.98697 0.65625,-1.3125 0.1302,-0.31249 0.36197,-0.46874 0.6875,-0.46875 0.22135,1e-5 0.40104,0.0625 0.53125,0.21875 0.14322,0.15626 0.21874,0.34896 0.21875,0.53125 -10e-6,0.0912 -0.0234,0.15886 -0.0625,0.25 -0.0391,0.0912 -0.15626,0.29948 -0.3125,0.625 -0.14324,0.32553 -0.31511,0.72657 -0.5625,1.15625 -0.23438,0.42969 -0.51823,0.86198 -0.84375,1.34375 -0.3125,0.46875 -0.69011,0.92188 -1.09375,1.3125 -0.39063,0.39063 -0.79427,0.70833 -1.25,0.96875 -0.45573,0.26042 -0.92969,0.375 -1.4375,0.375 -0.89844,0 -1.72135,-0.28906 -2.4375,-0.875 -0.71614,-0.58594 -1.33594,-1.38281 -1.84375,-2.4375 -0.11816,-0.25188 -0.2077,-0.53834 -0.3125,-0.8125 -0.24435,0.40536 -0.53648,0.83389 -0.875,1.3125 -0.37761,0.53386 -0.81772,1.03125 -1.3125,1.5 -0.48178,0.45573 -1.02605,0.82552 -1.625,1.125 -0.59897,0.3125 -1.21615,0.46875 -1.90625,0.46875 -0.85938,0 -1.65365,-0.23177 -2.34375,-0.6875 -0.67709,-0.45573 -1.29688,-1.01562 -1.84375,-1.71875 -0.22136,0.39063 -0.41667,0.76563 -0.625,1.15625 l -0.625,1.1875 c -0.14323,0.27344 -0.35677,0.40625 -0.65625,0.40625 -0.22135,0 -0.41927,-0.0937 -0.5625,-0.25 -0.13021,-0.15625 -0.1875,-0.31771 -0.1875,-0.5 0,-0.10417 0.0287,-0.21354 0.0937,-0.34375 0.26042,-0.50781 0.53906,-1.02344 0.8125,-1.53125 0.27344,-0.50781 0.54427,-1.00521 0.84375,-1.5 -0.44271,-0.76823 -0.8125,-1.54947 -1.125,-2.34375 -0.3125,-0.80729 -0.56771,-1.57812 -0.75,-2.28125 l -1.15625,2.40625 c -0.048,0.0961 -0.12189,0.1549 -0.1875,0.21875 -0.86833,1.85989 -1.81973,3.28841 -2.84375,4.25 -1.05469,1.0026 -2.25261,1.50521 -3.59375,1.53125 -0.85938,0 -1.59375,-0.16146 -2.21875,-0.5 -0.625,-0.32552 -1.1276,-0.76042 -1.53125,-1.28125 -0.40364,-0.53385 -0.71093,-1.11719 -0.90625,-1.78125 -0.19531,-0.66406 -0.28125,-1.33593 -0.28125,-2 0,-0.66406 0.0625,-1.28385 0.21875,-1.84375 0.16927,-0.55989 0.41927,-1.05208 0.71875,-1.46875 0.3125,-0.41666 0.67709,-0.73437 1.09375,-0.96875 0.42969,-0.23437 0.89844,-0.34374 1.40625,-0.34375 0.29948,1e-5 0.58854,0.0573 0.875,0.1875 0.29948,0.1172 0.54687,0.29688 0.78125,0.53125 0.23437,0.22136 0.41927,0.48699 0.5625,0.8125 0.14323,0.32553 0.21875,0.70834 0.21875,1.125 0,0.53386 -0.0677,1.03126 -0.25,1.5 -0.18229,0.46875 -0.45573,0.90886 -0.78125,1.3125 -0.3125,0.40365 -0.68229,0.78646 -1.125,1.125 -0.44271,0.33854 -0.92969,0.62761 -1.4375,0.875 0.27344,0.37761 0.63281,0.67188 1.0625,0.90625 0.42969,0.22136 0.96875,0.34375 1.59375,0.34375 0.63802,0 1.19791,-0.16927 1.71875,-0.46875 0.52083,-0.3125 1.00781,-0.69271 1.4375,-1.1875 0.42968,-0.49479 0.8177,-1.07552 1.15625,-1.6875 0.33854,-0.61197 0.63281,-1.20052 0.90625,-1.8125 0.0508,-0.11178 0.13621,-0.1858 0.21875,-0.25 l 2,-4.21875 c 0.0651,-0.11718 0.16406,-0.20311 0.28125,-0.28125 0.11719,-0.0781 0.23177,-0.12499 0.375,-0.125 0.20833,1e-5 0.36979,0.0755 0.5,0.21875 0.13021,0.13022 0.22396,0.3047 0.25,0.5 0.013,0.1823 0.0469,0.45313 0.125,0.84375 0.0912,0.39063 0.20052,0.83595 0.34375,1.34375 0.15625,0.4948 0.33594,1.02084 0.53125,1.59375 0.20833,0.57292 0.44531,1.15886 0.71875,1.71875 1.5625,-2.53906 3.29947,-4.96353 5.1875,-7.28125 0.1302,-0.16926 0.3151,-0.24999 0.5625,-0.25 0.20833,1e-5 0.38801,0.0443 0.53125,0.1875 0.14322,0.14324 0.21874,0.33595 0.21875,0.53125 -10e-6,0.1823 -0.0703,0.33855 -0.1875,0.46875 -2.00521,2.47397 -3.81511,5.07813 -5.46875,7.8125 0.45573,0.67709 0.95312,1.21354 1.5,1.65625 0.54687,0.44271 1.15364,0.6875 1.84375,0.6875 0.61197,0 1.20312,-0.17969 1.75,-0.53125 0.54687,-0.35156 1.02603,-0.77344 1.46875,-1.28125 0.45572,-0.52083 0.86197,-1.10156 1.1875,-1.6875 0.29555,-0.5229 0.51103,-0.97266 0.6875,-1.40625 -0.0738,-0.31677 -0.12657,-0.6306 -0.1875,-0.96875 -0.26041,-1.4453 -0.375,-3.03124 -0.375,-4.75 0,-0.42968 -0.013,-0.92707 0,-1.5 0.013,-0.58592 0.0547,-1.20571 0.0937,-1.84375 0.0391,-0.65103 0.0781,-1.3229 0.15625,-2 0.0781,-0.69009 0.1823,-1.34894 0.3125,-2 l -7,0 c -0.20832,2e-5 -0.38801,-0.0703 -0.53125,-0.1875 -0.14322,-0.13019 -0.21874,-0.29165 -0.21875,-0.5 10e-6,-0.20831 0.0755,-0.38279 0.21875,-0.5 0.14324,-0.13019 0.32293,-0.18748 0.53125,-0.1875 l 7.34375,0 c 0.13021,-0.46873 0.26823,-0.8906 0.4375,-1.28125 0.18229,-0.3906 0.40365,-0.74477 0.625,-1.03125 0.23438,-0.28644 0.47656,-0.49998 0.75,-0.65625 0.28646,-0.16925 0.59896,-0.24998 0.9375,-0.25 z m -0.0625,1.46875 c -0.11719,2e-5 -0.30989,0.11461 -0.53125,0.375 -0.22135,0.24742 -0.43489,0.71096 -0.65625,1.375 l 1.875,0 c -0.0651,-0.54685 -0.15104,-0.96873 -0.28125,-1.28125 -0.11719,-0.31248 -0.25,-0.46873 -0.40625,-0.46875 z m -1.53125,3.125 c -0.18229,0.80731 -0.35156,1.8021 -0.46875,3 -0.10416,1.18491 -0.15625,2.63803 -0.15625,4.34375 0,0.95053 0.0417,1.75522 0.0937,2.40625 0.0521,0.63803 0.11459,1.19792 0.21875,1.71875 0.39063,-0.85937 0.75,-1.79166 1.0625,-2.78125 0.32552,-1.00259 0.59115,-1.98436 0.8125,-3 0.23438,-1.01561 0.41406,-2.02342 0.53125,-3 0.13021,-0.97655 0.21875,-1.86717 0.21875,-2.6875 l -2.3125,0 z m -22.84375,10.71875 c -0.35156,1e-5 -0.65885,0.086 -0.90625,0.28125 -0.24739,0.19532 -0.46875,0.46876 -0.625,0.78125 -0.15625,0.31251 -0.26562,0.64063 -0.34375,1.03125 -0.0651,0.37761 -0.0937,0.77865 -0.0937,1.15625 0,0.23438 0.0234,0.45834 0.0625,0.71875 0.0521,0.26042 0.1224,0.51563 0.1875,0.75 0.40365,-0.16927 0.76823,-0.39583 1.09375,-0.65625 0.33854,-0.26041 0.60938,-0.53125 0.84375,-0.84375 0.23437,-0.31249 0.43229,-0.6302 0.5625,-0.96875 0.13021,-0.35156 0.1875,-0.71093 0.1875,-1.0625 0,-0.39062 -0.11719,-0.67968 -0.3125,-0.875 -0.19531,-0.20833 -0.39583,-0.31249 -0.65625,-0.3125 z m 22.84375,2.15625 0,0.0312 0,-0.0312 z m -54.875,35.9375 c 0.23437,2e-5 0.40625,0.086 0.5625,0.28125 0.013,0.013 0.13541,0.14064 0.34375,0.375 0.20833,0.23439 0.49739,0.52866 0.875,0.90625 0.3776,0.37762 0.84115,0.81773 1.375,1.3125 0.53385,0.49481 1.11719,1.01564 1.78125,1.5625 0.67708,0.53387 1.40625,1.07814 2.1875,1.625 0.79426,0.53387 1.6276,1.04949 2.5,1.53125 0.27343,0.14324 0.40624,0.33855 0.40625,0.625 -10e-6,0.29949 -0.0964,0.54428 -0.34375,0.6875 -0.67709,0.37761 -1.3099,0.71876 -1.84375,1.03125 -0.52084,0.31251 -0.98178,0.60678 -1.4375,0.90625 -0.44271,0.28647 -0.89584,0.58855 -1.3125,0.875 -0.41667,0.27345 -0.84375,0.54949 -1.3125,0.875 -0.45573,0.31251 -0.96615,0.65365 -1.5,1.03125 -0.53386,0.36459 -1.13542,0.78126 -1.8125,1.25 -0.13021,0.0912 -0.26302,0.15626 -0.40625,0.15625 -0.11719,1e-5 -0.24479,-0.0286 -0.375,-0.0937 -0.11719,-0.0781 -0.21615,-0.17708 -0.28125,-0.28125 -0.0911,-0.1302 -0.125,-0.26302 -0.125,-0.40625 0,-0.26041 0.10416,-0.48176 0.3125,-0.625 0.63802,-0.42968 1.20573,-0.78645 1.6875,-1.125 0.48177,-0.33853 0.90885,-0.66405 1.3125,-0.9375 0.40364,-0.28645 0.80469,-0.53385 1.15625,-0.78125 0.36458,-0.24739 0.73437,-0.50259 1.125,-0.75 0.40364,-0.26041 0.82552,-0.52603 1.28125,-0.8125 0.46875,-0.28645 1.01302,-0.63541 1.625,-1 -1.28907,-0.79426 -2.45313,-1.59894 -3.46875,-2.40625 -1.01563,-0.8203 -1.8776,-1.55467 -2.59375,-2.21875 -0.71615,-0.66405 -1.28386,-1.21352 -1.6875,-1.65625 -0.39063,-0.44269 -0.60417,-0.70311 -0.65625,-0.78125 -0.0911,-0.10415 -0.125,-0.25519 -0.125,-0.4375 0,-0.19529 0.0755,-0.35675 0.21875,-0.5 0.14323,-0.15623 0.32291,-0.21873 0.53125,-0.21875 z m -5.25,12.53125 c 0.20832,-0.013 0.38801,0.026 0.53125,0.15625 0.15624,0.13022 0.23697,0.32292 0.25,0.53125 -10e-6,0.20834 -0.0573,0.37501 -0.1875,0.53125 -0.1172,0.14324 -0.27866,0.23699 -0.5,0.25 l -6.71875,0.34375 c -0.19532,0.013 -0.39323,-0.0391 -0.5625,-0.15625 -0.15625,-0.1302 -0.21875,-0.30989 -0.21875,-0.53125 0,-0.20833 0.0391,-0.38801 0.15625,-0.53125 0.1302,-0.15624 0.30989,-0.23697 0.53125,-0.25 l 6.71875,-0.34375 z"
       id="path3777"
       inkscape:connector-curvature="0" />
  </g>
</svg>
